<svg width="412" height="100" viewBox="0 0 412 100" fill="none" xmlns="http://www.w3.org/2000/svg">
<g clip-path="url(#clip0)">
<path d="M17.3828 0.138672C17.1152 0.185547 16.2363 0.388672 15.4297 0.589844C14.625 0.791016 13.2617 1.24805 12.4023 1.60547C11.543 1.96289 10.0918 2.75 9.17969 3.35352C8.26563 3.95703 6.83008 5.14258 5.98633 5.98633C5.14258 6.83008 3.95703 8.26563 3.35352 9.17969C2.75 10.0918 1.96289 11.543 1.60547 12.4023C1.24805 13.2617 0.761719 14.668 0.525391 15.5273L0.0976562 17.0898V82.9102C0.761719 85.332 1.24805 86.7383 1.60547 87.5977C1.96289 88.457 2.75 89.9063 3.35352 90.8203C3.95703 91.7324 5.14258 93.1699 5.98633 94.0137C6.83008 94.8574 8.26563 96.043 9.17969 96.6465C10.0918 97.25 11.543 98.0371 12.4023 98.3945C13.2617 98.752 14.625 99.2344 15.4297 99.4648C16.8691 99.877 17.1836 99.8867 33.4473 99.9434L50 100V70.5078C38.8652 70.5117 35.3809 70.4258 34.7656 70.3105C34.1738 70.1992 33.1426 69.8477 32.4707 69.5273C31.7578 69.1875 30.8027 68.498 30.1758 67.8711C29.5605 67.2559 28.8496 66.2754 28.5117 65.5762C28.1875 64.9043 27.8203 63.7402 27.6973 62.9883C27.5234 61.9355 27.5273 61.3066 27.7109 60.2539C27.8457 59.4844 28.2227 58.377 28.5742 57.7207L29.1992 56.5547C26.459 55.6367 25.1543 55.0625 24.5332 54.6875C23.9121 54.3105 22.9492 53.6191 22.3945 53.1504C21.8398 52.6816 20.9902 51.8301 20.5078 51.2617C20.0234 50.6914 19.3203 49.7148 18.9453 49.0898C18.5684 48.4648 18.0293 47.293 17.7461 46.4863C17.4629 45.6797 17.1211 44.3164 16.9844 43.457C16.8359 42.5176 16.7832 41.2344 16.8555 40.2344C16.9199 39.3203 17.1035 38.0898 17.2598 37.5C17.418 36.9082 17.7266 35.9414 17.9434 35.3516C18.1621 34.7598 18.7695 33.6191 19.2949 32.8125C19.8184 32.0078 20.7676 30.8281 21.4023 30.1914C22.0391 29.5566 23.2188 28.6074 24.0234 28.084C24.8301 27.5586 25.9707 26.9512 26.5625 26.7324C27.1523 26.5137 28.1641 26.1895 28.8086 26.0137C29.6055 25.7949 30.7598 25.6914 32.4219 25.6914C34.084 25.6914 35.2383 25.7949 36.0352 26.0137C36.6797 26.1895 37.6895 26.5137 38.2812 26.7324C38.8711 26.9512 40.0156 27.5586 40.8203 28.084C41.627 28.6074 42.8047 29.5566 43.4414 30.1914C44.0762 30.8281 45.0254 32.0078 45.5508 32.8125C46.0742 33.6191 46.6094 34.5723 46.7383 34.9336C46.9707 35.5859 46.9805 35.5898 47.9492 35.4727C48.4863 35.4082 49.168 35.3535 49.4629 35.3535L50 35.3516V0C25.0996 0.0410156 17.6523 0.0917969 17.3828 0.138672Z" fill="#00C3FF"/>
<path d="M50.0039 17.6211L49.9961 35.2539C52.1934 35.4746 53.3594 35.6719 54.0039 35.8359C54.6485 36 55.9668 36.5254 56.9336 37.002C57.9004 37.4805 59.2188 38.2969 59.8633 38.8184C60.5078 39.3418 61.4981 40.334 62.0645 41.0273C62.6289 41.7187 63.4356 42.9453 63.8555 43.75C64.2754 44.5566 64.7793 45.7656 64.9746 46.4395C65.1719 47.1133 65.4199 47.6602 65.5274 47.6543C65.6348 47.6465 66.25 47.5156 66.8945 47.3594C67.5391 47.2031 68.7266 47.0762 69.5313 47.0762C70.3379 47.0762 71.5664 47.2129 72.2656 47.3789C72.9629 47.5449 74.1953 48.0215 75 48.4375C75.9629 48.9355 76.9199 49.6523 77.7949 50.5254C78.668 51.4004 79.3848 52.3574 79.8828 53.3203C80.2988 54.127 80.7754 55.3555 80.9414 56.0547C81.1074 56.752 81.2442 57.9844 81.2442 58.7891C81.2442 59.5957 81.1074 60.8242 80.9414 61.5234C80.7754 62.2207 80.2988 63.4531 79.8828 64.2578C79.3848 65.2207 78.668 66.1777 77.7949 67.0527C76.9199 67.9258 75.9629 68.6426 75 69.1406C74.1953 69.5566 72.9629 70.0332 72.2656 70.1992C71.2031 70.4531 69.2852 70.502 60.4981 70.5059L50 70.5078V100C82.7363 99.8984 83.1387 99.8867 84.5703 99.4824C85.377 99.2559 86.6953 98.7988 87.5 98.4668C88.3067 98.1348 89.7559 97.3457 90.7227 96.7129C91.6895 96.0801 93.1738 94.8691 94.0215 94.0215C94.8692 93.1738 96.0801 91.6895 96.7129 90.7227C97.3457 89.7559 98.1348 88.3066 98.4668 87.5C98.7988 86.6953 99.2578 85.332 99.4863 84.4727L99.9024 82.9102V17.0898C99.2578 14.668 98.7988 13.3066 98.4668 12.5C98.1348 11.6953 97.3457 10.2441 96.7129 9.27734C96.0801 8.31055 94.8692 6.82617 94.0215 5.97852C93.1738 5.13086 91.6895 3.91992 90.7227 3.28711C89.7559 2.6543 88.3067 1.86523 87.5 1.5332C86.6953 1.20117 85.377 0.744141 84.5703 0.517578C83.1387 0.113281 82.7266 0.101562 66.5586 0.0449219L50.0117 -0.0117188L50.0039 17.6211Z" fill="#00AAF0"/>
<path d="M29.4922 25.8672C28.793 26.0137 27.6504 26.3418 26.9531 26.5957C26.2539 26.8477 25.1699 27.3614 24.543 27.7364C23.916 28.1114 22.9492 28.8028 22.3945 29.2715C21.8398 29.7403 20.9902 30.5918 20.5078 31.1602C20.0234 31.7305 19.3223 32.7071 18.9473 33.334C18.5723 33.961 18.0586 35.043 17.8066 35.7422C17.5547 36.4395 17.2246 37.6485 17.0723 38.4278C16.9219 39.2071 16.7969 40.459 16.7969 41.211C16.7969 41.9629 16.9219 43.2149 17.0723 43.9942C17.2246 44.7735 17.5547 45.9805 17.8066 46.6797C18.0586 47.377 18.5723 48.4629 18.9473 49.0899C19.3223 49.7168 20.0137 50.6836 20.4824 51.2383C20.9512 51.793 21.8008 52.6407 22.3672 53.1251C22.9355 53.6075 23.957 54.336 24.6387 54.7403C25.3203 55.1446 26.5938 55.7149 27.4688 56.0098L29.0586 56.543C30.832 54.9141 31.7422 54.2462 32.2266 54.0059C32.709 53.7657 33.4355 53.4688 33.8379 53.3477L34.5703 53.1251C34.3672 50.8633 34.416 49.6641 34.5625 48.7305C34.6992 47.8711 35.041 46.5079 35.3242 45.7012C35.6074 44.8946 36.1465 43.7227 36.5234 43.0977C36.8984 42.4727 37.6016 41.4961 38.0859 40.9258C38.5684 40.3575 39.416 39.5059 39.9688 39.0371C40.5215 38.5684 41.5332 37.8516 42.2148 37.4454C42.8984 37.0391 44.2246 36.4668 45.1621 36.1758C46.1074 35.8809 46.8711 35.5352 46.8711 35.4004C46.873 35.2657 46.6875 34.7832 46.457 34.3262C46.2266 33.8692 45.7109 33.0118 45.3125 32.4219C44.9121 31.8301 44.0664 30.8282 43.4355 30.1914C42.8027 29.5567 41.627 28.6075 40.8203 28.084C40.0156 27.5586 38.8711 26.9512 38.2813 26.7324C37.6895 26.5157 36.7227 26.2051 36.1328 26.043C35.541 25.8828 34.0918 25.7168 32.9102 25.6739C31.541 25.625 30.3008 25.6953 29.4922 25.8672Z" fill="#FFEA84"/>
<path d="M47.461 35.543C46.9766 35.6211 45.879 35.918 45.0196 36.2012C44.1602 36.4844 42.8985 37.0469 42.2149 37.4492C41.5333 37.8535 40.5215 38.5684 39.9688 39.0371C39.4161 39.5059 38.5684 40.3574 38.086 40.9258C37.6016 41.4961 36.8985 42.4727 36.5235 43.0977C36.1465 43.7227 35.6075 44.8945 35.3243 45.7012C35.0411 46.5078 34.6993 47.8711 34.5625 48.7305C34.4161 49.6641 34.3672 50.8633 34.4434 51.709L34.5704 53.125C33.4356 53.4687 32.709 53.7656 32.2266 54.0078C31.7422 54.248 30.9082 54.8379 30.3711 55.3164C29.7911 55.834 29.1016 56.7344 28.6739 57.5371C28.2344 58.3594 27.8575 59.4199 27.711 60.2539C27.5254 61.3144 27.5215 61.9277 27.6993 62.9883C27.8243 63.7402 28.1914 64.9043 28.5137 65.5762C28.8535 66.2793 29.5567 67.2519 30.1758 67.8711C30.8028 68.498 31.7579 69.1875 32.4707 69.5273C33.1426 69.8477 34.1739 70.1992 34.7657 70.3105C35.3809 70.4258 38.8653 70.5117 42.92 70.5098L50.0001 70.5078V35.3516C48.713 35.3867 47.9434 35.4629 47.461 35.543Z" fill="white"/>
<path d="M50.0313 52.9004L50 70.5078C69.2852 70.502 71.2031 70.4532 72.2656 70.1992C72.9629 70.0332 74.1953 69.5567 75 69.1406C75.9629 68.6426 76.9199 67.9258 77.7949 67.0528C78.668 66.1778 79.3848 65.2207 79.8828 64.2578C80.2988 63.4531 80.7754 62.2207 80.9414 61.5235C81.1074 60.8242 81.2441 59.5957 81.2441 58.7891C81.2441 57.9844 81.1074 56.752 80.9414 56.0547C80.7754 55.3555 80.2988 54.127 79.8828 53.3203C79.3848 52.3574 78.668 51.4004 77.7949 50.5254C76.9199 49.6524 75.9629 48.9356 75 48.4375C74.1953 48.0215 72.9629 47.5449 72.2656 47.3789C71.5664 47.2129 70.3379 47.0762 69.5313 47.0762C68.7266 47.0762 67.5391 47.2031 66.8945 47.3594C66.25 47.5156 65.6348 47.6465 65.5273 47.6543C65.4199 47.6602 65.1719 47.1133 64.9746 46.4395C64.7793 45.7656 64.2754 44.5566 63.8555 43.75C63.4356 42.9453 62.668 41.7578 62.1504 41.1133C61.6328 40.4688 60.6426 39.4746 59.9492 38.9063C59.2578 38.3359 57.9004 37.4805 56.9336 37.002C55.9668 36.5254 54.6484 36 54.0039 35.8359C53.3594 35.6719 52.209 35.4824 51.4473 35.416L50.0625 35.2949L50.0313 52.9004Z" fill="#F2F2F2"/>
</g>
<path d="M149.08 68H141.756L127.498 44.6113V68H120.174V32.4531H127.498L141.78 55.8906V32.4531H149.08V68ZM167.171 68.4883C163.297 68.4883 160.14 67.3001 157.698 64.9238C155.273 62.5475 154.061 59.3818 154.061 55.4268V54.7432C154.061 52.0902 154.573 49.722 155.599 47.6387C156.624 45.5391 158.073 43.9277 159.944 42.8047C161.832 41.6654 163.981 41.0957 166.39 41.0957C170.003 41.0957 172.843 42.235 174.91 44.5137C176.993 46.7923 178.035 50.0231 178.035 54.2061V57.0869H161.214C161.442 58.8122 162.125 60.1956 163.265 61.2373C164.42 62.279 165.877 62.7998 167.635 62.7998C170.353 62.7998 172.477 61.8151 174.007 59.8457L177.474 63.7275C176.416 65.2249 174.983 66.3968 173.177 67.2432C171.37 68.0732 169.368 68.4883 167.171 68.4883ZM166.365 46.8086C164.965 46.8086 163.826 47.2806 162.947 48.2246C162.085 49.1686 161.531 50.5195 161.287 52.2773H171.102V51.7158C171.069 50.1533 170.646 48.9489 169.832 48.1025C169.018 47.2399 167.863 46.8086 166.365 46.8086ZM192.122 49.4697L196.565 41.584H204.109L196.59 54.5234L204.427 68H196.858L192.146 59.6992L187.459 68H179.866L187.703 54.5234L180.208 41.584H187.776L192.122 49.4697ZM215.95 35.0898V41.584H220.467V46.7598H215.95V59.9434C215.95 60.9199 216.137 61.6198 216.512 62.043C216.886 62.4661 217.602 62.6777 218.66 62.6777C219.441 62.6777 220.133 62.6208 220.735 62.5068V67.8535C219.352 68.2767 217.928 68.4883 216.463 68.4883C211.515 68.4883 208.992 65.9899 208.895 60.9932V46.7598H205.037V41.584H208.895V35.0898H215.95ZM252.547 57.7461L257.332 32.4531H264.632L256.746 68H249.373L243.587 44.2207L237.801 68H230.428L222.542 32.4531H229.842L234.651 57.6973L240.511 32.4531H246.712L252.547 57.7461ZM279.524 68.4883C275.651 68.4883 272.493 67.3001 270.052 64.9238C267.627 62.5475 266.414 59.3818 266.414 55.4268V54.7432C266.414 52.0902 266.927 49.722 267.952 47.6387C268.978 45.5391 270.426 43.9277 272.298 42.8047C274.186 41.6654 276.334 41.0957 278.743 41.0957C282.356 41.0957 285.197 42.235 287.264 44.5137C289.347 46.7923 290.389 50.0231 290.389 54.2061V57.0869H273.567C273.795 58.8122 274.479 60.1956 275.618 61.2373C276.774 62.279 278.23 62.7998 279.988 62.7998C282.706 62.7998 284.83 61.8151 286.36 59.8457L289.827 63.7275C288.769 65.2249 287.337 66.3968 285.53 67.2432C283.724 68.0732 281.722 68.4883 279.524 68.4883ZM278.719 46.8086C277.319 46.8086 276.18 47.2806 275.301 48.2246C274.438 49.1686 273.885 50.5195 273.641 52.2773H283.455V51.7158C283.423 50.1533 282.999 48.9489 282.186 48.1025C281.372 47.2399 280.216 46.8086 278.719 46.8086ZM309.725 68C309.399 67.3652 309.163 66.5758 309.017 65.6318C307.308 67.5361 305.086 68.4883 302.352 68.4883C299.764 68.4883 297.615 67.7396 295.906 66.2422C294.214 64.7448 293.367 62.8568 293.367 60.5781C293.367 57.7786 294.401 55.6302 296.468 54.1328C298.551 52.6354 301.554 51.8786 305.477 51.8623H308.724V50.3486C308.724 49.1279 308.406 48.1514 307.771 47.4189C307.153 46.6865 306.168 46.3203 304.817 46.3203C303.629 46.3203 302.693 46.6051 302.01 47.1748C301.342 47.7445 301.009 48.5257 301.009 49.5186H293.953C293.953 47.9886 294.425 46.5726 295.369 45.2705C296.313 43.9684 297.648 42.9512 299.373 42.2188C301.098 41.4701 303.035 41.0957 305.184 41.0957C308.439 41.0957 311.019 41.9176 312.923 43.5615C314.843 45.1891 315.804 47.484 315.804 50.4463V61.8965C315.82 64.403 316.17 66.2992 316.854 67.585V68H309.725ZM303.89 63.0928C304.931 63.0928 305.892 62.8649 306.771 62.4092C307.649 61.9372 308.3 61.3105 308.724 60.5293V55.9883H306.087C302.555 55.9883 300.675 57.209 300.447 59.6504L300.423 60.0654C300.423 60.9443 300.732 61.6686 301.351 62.2383C301.969 62.8079 302.815 63.0928 303.89 63.0928ZM329.671 35.0898V41.584H334.188V46.7598H329.671V59.9434C329.671 60.9199 329.858 61.6198 330.232 62.043C330.607 62.4661 331.323 62.6777 332.381 62.6777C333.162 62.6777 333.854 62.6208 334.456 62.5068V67.8535C333.073 68.2767 331.648 68.4883 330.184 68.4883C325.236 68.4883 322.713 65.9899 322.615 60.9932V46.7598H318.758V41.584H322.615V35.0898H329.671ZM345.003 44.4648C346.875 42.2188 349.227 41.0957 352.059 41.0957C357.788 41.0957 360.693 44.4242 360.774 51.0811V68H353.719V51.2764C353.719 49.7627 353.393 48.6478 352.742 47.9316C352.091 47.1992 351.009 46.833 349.495 46.833C347.428 46.833 345.931 47.6305 345.003 49.2256V68H337.947V30.5H345.003V44.4648ZM378.255 68.4883C374.381 68.4883 371.224 67.3001 368.782 64.9238C366.357 62.5475 365.145 59.3818 365.145 55.4268V54.7432C365.145 52.0902 365.657 49.722 366.683 47.6387C367.708 45.5391 369.157 43.9277 371.028 42.8047C372.916 41.6654 375.065 41.0957 377.474 41.0957C381.087 41.0957 383.927 42.235 385.994 44.5137C388.077 46.7923 389.119 50.0231 389.119 54.2061V57.0869H372.298C372.526 58.8122 373.209 60.1956 374.349 61.2373C375.504 62.279 376.961 62.7998 378.719 62.7998C381.437 62.7998 383.561 61.8151 385.091 59.8457L388.558 63.7275C387.5 65.2249 386.067 66.3968 384.261 67.2432C382.454 68.0732 380.452 68.4883 378.255 68.4883ZM377.449 46.8086C376.049 46.8086 374.91 47.2806 374.031 48.2246C373.169 49.1686 372.615 50.5195 372.371 52.2773H382.186V51.7158C382.153 50.1533 381.73 48.9489 380.916 48.1025C380.102 47.2399 378.947 46.8086 377.449 46.8086ZM407.991 48.2002C407.031 48.07 406.185 48.0049 405.452 48.0049C402.783 48.0049 401.033 48.9082 400.203 50.7148V68H393.147V41.584H399.812L400.008 44.7334C401.424 42.3083 403.385 41.0957 405.892 41.0957C406.673 41.0957 407.405 41.2015 408.089 41.4131L407.991 48.2002Z" fill="#C4C4C4"/>
<defs>
<clipPath id="clip0">
<rect width="100" height="100" fill="white"/>
</clipPath>
</defs>
</svg>
