<svg version="1.2" baseProfile="tiny-ps" xmlns="http://www.w3.org/2000/svg" viewBox="0 0 512 512" width="512" height="512">
	<title>dew-point</title>
	<style>
		tspan { white-space:pre }
		.shp0 { fill: #000000 } 
	</style>
	<path id="Path 0" fill-rule="evenodd" class="shp0" d="M122 0.09C132.15 0 136.38 0.44 144.5 2.42C150 3.77 157.43 6.11 161 7.63C164.57 9.15 170.43 12.14 174 14.27C177.57 16.41 182.93 20.04 185.89 22.33C188.86 24.62 193.55 28.98 196.32 32C199.09 35.02 203.87 41.35 206.93 46.05C209.99 50.75 213.95 58.4 215.72 63.05C217.49 67.7 219.4 73.41 221 80L235.33 80.25C248.8 80.49 249.88 80.65 253.58 83.06C255.73 84.47 258.63 87.4 260 89.56C262.01 92.72 262.5 94.78 262.5 100C262.5 105.22 262.01 107.28 260 110.44C258.63 112.6 255.73 115.53 253.57 116.94C249.7 119.46 249.35 119.5 211.5 119.5L205 116.45C201.43 114.78 196.47 111.57 194 109.34C191.53 107.1 188.08 102.62 186.35 99.38C184.62 96.15 182.23 89.9 181.03 85.5C179.84 81.1 177.44 74.8 175.71 71.5C173.91 68.05 169.36 62.27 165.03 57.91C159.5 52.34 155.51 49.34 150 46.65C145.88 44.63 139.13 42.26 135 41.39C129.92 40.31 124.92 39.98 119.5 40.35C115.1 40.65 109.03 41.76 106 42.81C102.97 43.86 98.25 45.86 95.5 47.25C92.75 48.65 88.26 51.75 85.51 54.15C82.77 56.54 79.39 59.79 78.01 61.36C76.63 62.93 73.79 66.98 71.71 70.36C69.63 73.74 66.93 79.42 63.51 89.5L62.5 321.5L59.68 329.5C58.13 333.9 54.95 340.88 52.61 345C50.27 349.13 47.41 354.75 46.26 357.5C45.11 360.25 43.37 365.43 42.38 369C41.07 373.76 40.59 379.12 40.59 389C40.59 398.71 41.09 404.33 42.34 409C43.3 412.57 46.32 420 49.03 425.5C51.75 431 56.29 438.2 59.11 441.5C61.93 444.8 67 449.87 70.37 452.76C73.74 455.65 81 460.27 86.5 463.02C93.51 466.54 99.34 468.62 106 470.01C111.22 471.09 118.65 471.98 122.5 471.98C126.35 471.98 132.43 471.52 136 470.94C139.57 470.37 146.1 468.68 150.5 467.18C154.9 465.68 162.1 462.23 166.5 459.51C170.9 456.79 177.67 451.4 181.53 447.53C185.4 443.67 190.79 436.9 193.51 432.5C196.23 428.1 199.69 420.9 201.19 416.5C202.69 412.1 204.44 405.13 205.08 401C205.77 396.6 206 389.58 205.64 384C205.31 378.77 204.31 371.8 203.43 368.5C202.54 365.2 200.88 360.25 199.72 357.5C198.57 354.75 195.49 348.68 192.88 344C190.28 339.32 187.1 332.13 185.82 328C183.66 321.02 183.5 318.81 183.5 271.5L186.55 265C188.22 261.43 191.6 256.32 194.05 253.66C196.92 250.53 201.14 247.52 213.39 241.5L231.52 241.5C249.28 241.5 249.72 241.55 253.57 244.06C255.73 245.47 258.63 248.4 260 250.56C262.01 253.72 262.5 255.78 262.5 261C262.5 266.22 262.01 268.28 260 271.44C258.63 273.6 255.73 276.53 253.58 277.94C249.92 280.32 248.72 280.52 223 281L223.5 316.5L229.7 328C233.11 334.32 237.48 344.23 239.42 350C241.36 355.77 243.68 365.23 244.57 371C245.71 378.34 246.04 385.11 245.69 393.5C245.41 400.1 244.43 409.1 243.51 413.5C242.6 417.9 240.7 424.88 239.29 429C237.89 433.13 235.16 439.65 233.23 443.5C231.3 447.35 227.47 453.88 224.71 458C221.95 462.13 214.92 470.25 209.09 476.06C203.27 481.87 195.35 488.67 191.5 491.17C187.65 493.67 181.35 497.3 177.5 499.24C173.65 501.17 166.9 503.94 162.5 505.38C158.1 506.83 150.22 508.91 145 510.01C138.4 511.4 131.69 512.01 123 512.01C114.09 512.01 107.63 511.4 100.5 509.89C95 508.73 86.67 506.44 82 504.8C77.33 503.17 70.13 500.03 66 497.83C61.88 495.63 54.96 491.28 50.64 488.16C46.32 485.05 39.01 478.56 34.39 473.75C29.78 468.94 23.58 461.29 20.62 456.75C17.67 452.21 14.12 446.25 12.74 443.5C11.36 440.75 8.88 434.68 7.22 430C5.57 425.32 3.22 416.77 1.99 411C0.05 401.86 -0.17 398.63 0.33 386C0.65 378.02 1.61 368.35 2.46 364.5C3.31 360.65 4.99 354.35 6.2 350.5C7.4 346.65 11.57 337.43 22.5 316.5L23.53 85.5L26.17 76C27.62 70.78 30.24 63.35 31.99 59.5C33.75 55.65 37.08 49.58 39.39 46C41.71 42.42 46.73 36.18 50.55 32.13C54.37 28.08 60.42 22.56 64 19.88C67.58 17.2 73.88 13.24 78 11.1C82.13 8.95 89.33 6.06 94 4.69C98.67 3.31 104.08 1.73 106 1.19C107.92 0.65 115.13 0.15 122 0.09ZM407.5 26.06C410.25 26.02 415.09 26.67 418.25 27.49C421.41 28.32 425.8 29.9 428 31C430.2 32.1 434.08 34.91 436.61 37.25C439.15 39.59 445.56 47.35 450.85 54.5C456.14 61.65 463.31 72 466.78 77.5C470.25 83 475.3 92 477.99 97.5C480.68 103 483.82 110.42 484.98 114C486.13 117.58 487.36 123.88 487.69 128C488.05 132.38 487.78 138.83 487.05 143.5C486.35 147.9 484.47 155.1 482.86 159.5C481.25 163.9 477.95 170.65 475.54 174.5C473.12 178.35 468.3 184.39 464.82 187.91C461.34 191.44 455.13 196.52 451 199.21C446.88 201.9 441.02 205.01 438 206.13C434.98 207.24 430.02 208.82 427 209.63C423.98 210.44 417.45 211.37 412.5 211.69C407.28 212.03 400.56 211.78 396.5 211.1C392.65 210.45 386.13 208.82 382 207.47C377.88 206.13 370.9 202.81 366.5 200.1C362.1 197.39 355.42 192.1 351.66 188.34C347.9 184.58 342.85 178.35 340.44 174.5C338.04 170.65 334.75 163.9 333.14 159.5C331.53 155.1 329.65 147.9 328.96 143.5C328.24 138.96 327.95 132.25 328.28 128C328.6 123.88 329.82 117.58 330.99 114C332.16 110.42 335.31 103 337.98 97.5C340.65 92 345.7 83 349.2 77.5C352.69 72 359.88 61.65 365.16 54.5C370.45 47.35 376.85 39.59 379.39 37.25C381.92 34.91 385.8 32.1 388 31C390.2 29.9 394.36 28.35 397.25 27.57C400.14 26.78 404.75 26.1 407.5 26.06ZM385.56 95C382.44 99.67 377.33 108.63 374.19 114.89C368.76 125.77 368.5 126.63 368.5 133.94C368.5 140.73 368.92 142.44 372.16 149.05C374.52 153.87 377.53 158.07 380.66 160.95C383.32 163.4 388.43 166.78 392 168.45C397.82 171.18 399.5 171.5 408 171.5C416.5 171.5 418.18 171.18 424 168.45C427.57 166.78 432.68 163.4 435.34 160.95C438.47 158.08 441.48 153.86 443.84 149.05C447.07 142.47 447.5 140.72 447.5 134.04C447.5 127.04 447.14 125.73 442.67 116.49C440.01 110.99 434.89 102 431.3 96.5C427.71 91 421.33 81.88 417.13 76.24C412.94 70.59 408.8 65.98 407.94 65.99C407.08 65.99 402.97 70.61 398.8 76.25C394.64 81.89 388.68 90.33 385.56 95ZM125 161.52C128.48 161.81 131.78 162.83 134 164.3C135.93 165.58 138.63 168.4 142.5 174.5L142.5 310.65L139.94 314.57C138.53 316.73 135.6 319.63 133.44 321C130.28 323.01 128.22 323.5 123 323.5C117.78 323.5 115.72 323.01 112.56 321C110.4 319.63 107.47 316.73 103.5 310.65L103.25 244.57C103.09 202.84 103.37 177.12 104 174.75C104.56 172.65 106.76 169.24 109 167C111.2 164.8 114.46 162.56 116.25 162.03C118.04 161.5 121.97 161.27 125 161.52ZM249.65 161.5L253.58 164.06C255.73 165.47 258.63 168.4 260 170.56C262.01 173.72 262.5 175.78 262.5 181C262.5 186.22 262.01 188.28 260 191.44C258.63 193.6 255.73 196.53 249.65 200.5L196.5 200.5L192.56 198C190.4 196.63 187.6 193.93 186.34 192C185.08 190.07 183.76 186.47 183.42 184C183.07 181.53 183.29 177.59 183.9 175.25C184.59 172.59 186.5 169.5 189 167C191.2 164.8 194.46 162.58 196.25 162.06C198.04 161.54 210.78 161.2 249.65 161.5ZM407.5 252.1C410.8 252.06 416.31 252.7 419.75 253.51C423.19 254.33 428.59 256.3 431.75 257.89C434.91 259.49 439.52 262.56 442 264.73C444.48 266.89 451.73 275.6 458.12 284.08C464.51 292.56 473.35 304.9 477.75 311.5C482.16 318.1 488.6 328.45 492.07 334.5C495.54 340.55 500.13 349.55 502.27 354.5C504.41 359.45 507.34 367.32 508.78 372C510.4 377.29 511.54 383.71 511.8 389C512.02 393.68 511.65 401.32 510.98 406C510.31 410.68 508.64 418.1 507.26 422.5C505.89 426.9 502.96 434.1 500.75 438.5C498.54 442.9 495.35 448.52 493.65 451C491.95 453.48 486.95 459.27 482.53 463.87C478.11 468.48 471.8 474.16 468.5 476.51C465.2 478.85 459.13 482.46 455 484.52C450.88 486.59 444.35 489.36 440.5 490.67C436.65 491.99 429.45 493.72 424.5 494.53C419.55 495.33 412.13 495.99 408 495.99C403.88 495.99 396.45 495.33 391.5 494.53C386.55 493.72 379.35 491.99 375.5 490.67C371.65 489.36 364.9 486.47 360.5 484.26C356.1 482.04 349.8 478.2 346.5 475.73C343.2 473.25 337.11 467.69 332.97 463.36C328.83 459.04 324.05 453.48 322.34 451C320.63 448.52 317.43 442.9 315.22 438.5C313.01 434.1 310.07 426.9 308.68 422.5C307.3 418.1 305.62 410.45 304.95 405.5C304.29 400.55 304.01 392.9 304.33 388.5C304.66 384.1 305.63 377.8 306.5 374.5C307.37 371.2 309.99 363.77 312.32 358C314.65 352.23 319.63 342.1 323.39 335.5C327.15 328.9 333.83 318.1 338.24 311.5C342.65 304.9 351.49 292.56 357.88 284.08C364.27 275.6 371.52 266.89 374 264.73C376.48 262.56 381.09 259.49 384.25 257.89C387.41 256.3 392.59 254.36 395.75 253.58C398.91 252.8 404.2 252.14 407.5 252.1ZM400.11 295.38C398.79 296.54 393.65 302.9 388.69 309.5C383.72 316.1 375.21 328.25 369.78 336.5C364.34 344.75 357.48 356.23 354.53 362C351.58 367.77 348 375.99 346.58 380.25C345.1 384.71 344.01 390.23 344.02 393.25C344.03 396.14 344.69 401.65 345.49 405.5C346.29 409.35 348.86 416.32 351.21 421C354.36 427.29 357.3 431.32 362.52 436.5C366.39 440.35 372.03 444.96 375.03 446.74C378.04 448.53 383.88 451.21 388 452.7C394.54 455.06 397.04 455.41 407.5 455.45C417.22 455.49 420.83 455.08 426.5 453.28C430.35 452.06 436.41 449.36 439.98 447.28C443.54 445.2 449.39 440.56 452.98 436.96C456.56 433.36 460.96 427.96 462.74 424.96C464.53 421.96 467.1 416.35 468.46 412.5C469.83 408.65 471.24 402.13 471.59 398C472.07 392.54 471.8 388.73 470.62 384C469.72 380.43 466.09 371.65 462.55 364.5C459.02 357.35 451.67 344.75 446.23 336.5C440.79 328.25 432.28 316.1 427.31 309.5C422.35 302.9 417.21 296.48 415.89 295.23C414.52 293.93 411.79 292.77 409.5 292.51C407.3 292.26 404.82 292.33 404 292.66C403.18 292.99 401.42 294.21 400.11 295.38ZM122.5 364.07C124.7 364.02 128.75 364.74 131.5 365.68C134.47 366.7 138.15 369.04 140.55 371.45C142.96 373.85 145.3 377.53 146.32 380.5C147.26 383.25 148.02 387.07 148.02 389C148.02 390.93 147.26 394.75 146.32 397.5C145.3 400.47 142.96 404.15 140.55 406.55C138.15 408.96 134.47 411.3 131.5 412.32C128.75 413.26 124.92 414.02 123 414.02C121.08 414.02 117.25 413.26 114.5 412.32C111.53 411.3 107.85 408.96 105.45 406.55C103.04 404.15 100.7 400.47 99.68 397.5C98.74 394.75 97.98 390.93 97.98 389C97.98 387.07 98.74 383.25 99.68 380.5C100.69 377.54 103.04 373.84 105.45 371.44C107.68 369.2 111.53 366.65 114 365.77C116.47 364.88 120.3 364.12 122.5 364.07Z" />
</svg>