<svg version="1.2" baseProfile="tiny-ps" xmlns="http://www.w3.org/2000/svg" viewBox="0 0 512 512" width="512" height="512">
	<title>eye</title>
	<style>
		tspan { white-space:pre }
		.shp0 { fill: #000000 } 
	</style>
	<path id="Path 0" fill-rule="evenodd" class="shp0" d="M254.75 103.13C262.59 103.06 272.49 103.46 276.75 104.03C281.01 104.6 289.45 105.75 295.5 106.6C301.55 107.45 311.23 109.25 317 110.61C322.77 111.96 331.77 114.44 337 116.12C342.23 117.79 350.1 120.53 354.5 122.21C358.9 123.88 368.8 128.32 376.5 132.06C384.2 135.8 395.23 141.75 401 145.27C406.77 148.79 415.55 154.51 420.5 157.98C425.45 161.45 433.55 167.55 438.5 171.53C443.45 175.51 452.45 183.37 458.5 189C464.55 194.64 473.93 204.03 479.35 209.87C484.76 215.72 493.53 225.9 498.83 232.5C504.13 239.1 509.26 246.19 510.24 248.25C511.21 250.31 512 253.46 511.99 255.25C511.99 257.04 511.56 260.07 511.03 262C510.5 263.96 505.5 271.22 499.66 278.5C493.93 285.65 484.58 296.55 478.87 302.72C473.17 308.89 463.77 318.27 458 323.57C452.23 328.87 443.45 336.46 438.5 340.44C433.55 344.42 426.13 350.08 422 353.02C417.88 355.96 410.45 360.9 405.5 364C400.55 367.1 391.32 372.38 385 375.74C378.68 379.09 368.77 383.84 363 386.29C357.23 388.75 346.88 392.6 340 394.85C333.13 397.11 322.77 400.06 317 401.41C311.23 402.75 301.55 404.55 295.5 405.4C289.45 406.25 281.01 407.4 276.75 407.97C272.49 408.54 263.15 409 256 409C248.85 409 239.51 408.54 235.25 407.97C230.99 407.4 222.55 406.25 216.5 405.4C210.45 404.55 200.78 402.75 195 401.39C189.22 400.04 180.22 397.56 175 395.88C169.78 394.21 161.9 391.47 157.5 389.79C153.1 388.12 143.2 383.68 135.5 379.94C127.8 376.2 116.78 370.25 111 366.73C105.22 363.21 96.45 357.49 91.5 354.02C86.55 350.55 78.45 344.45 73.5 340.47C68.55 336.49 59.55 328.63 53.5 323C47.45 317.36 38.07 307.97 32.65 302.13C27.24 296.28 18.47 286.1 13.17 279.5C7.87 272.9 2.74 265.81 1.76 263.75C0.79 261.69 0 258.54 0.01 256.75C0.01 254.96 0.44 251.93 0.97 250C1.5 248.04 6.5 240.78 12.34 233.5C18.07 226.35 27.42 215.45 33.13 209.28C38.83 203.11 48.22 193.73 54 188.43C59.78 183.13 68.55 175.54 73.5 171.56C78.45 167.58 85.88 161.92 90 158.98C94.13 156.04 101.55 151.1 106.5 148C111.45 144.9 120.67 139.62 127 136.26C133.32 132.91 143.22 128.16 149 125.71C154.78 123.25 165.13 119.4 172 117.15C178.88 114.89 189.22 111.94 195 110.59C200.78 109.25 210.45 107.44 216.5 106.58C222.55 105.72 230.43 104.62 234 104.14C237.57 103.65 246.91 103.2 254.75 103.13ZM230.5 151.5C226.65 152.46 220.13 154.59 216 156.22C211.88 157.86 205.35 161.04 201.5 163.31C197.65 165.58 191.25 170.15 187.28 173.47C183.31 176.78 177.22 182.88 173.75 187C170.27 191.13 165.58 197.65 163.32 201.5C161.06 205.35 158.02 211.43 156.56 215C155.11 218.57 153.02 224.88 151.92 229C150.82 233.13 149.49 241.34 148.96 247.25C148.34 254.21 148.35 261.09 148.98 266.75C149.52 271.56 150.91 279.1 152.06 283.5C153.21 287.9 155.54 294.65 157.24 298.5C158.93 302.35 161.77 307.98 163.55 311C165.32 314.02 168.63 318.86 170.89 321.75C173.15 324.64 177.59 329.54 180.75 332.65C183.91 335.75 188.75 339.97 191.5 342.01C194.25 344.05 198.75 347.07 201.5 348.71C204.25 350.34 209.88 353.16 214 354.97C218.13 356.77 224.65 359.05 228.5 360.02C232.35 360.99 239.66 362.29 244.75 362.9C251.1 363.65 257.37 363.7 264.75 363.04C270.66 362.51 279.1 361.13 283.5 359.97C287.9 358.81 295.55 355.96 300.5 353.64C305.45 351.31 312.88 347.09 317 344.26C321.13 341.43 328.14 335.38 332.58 330.81C337.02 326.24 342.62 319.57 345.02 316C347.42 312.43 351.29 305.45 353.63 300.5C355.96 295.55 358.81 287.9 359.97 283.5C361.13 279.1 362.51 270.66 363.04 264.75C363.66 257.79 363.65 250.91 363.02 245.25C362.48 240.44 361.09 232.9 359.94 228.5C358.79 224.1 356.46 217.35 354.76 213.5C353.07 209.65 350.23 204.03 348.45 201C346.68 197.97 343.37 193.14 341.11 190.25C338.85 187.36 334.19 182.26 330.75 178.91C327.31 175.56 321.57 170.74 318 168.21C314.43 165.67 308.13 161.91 304 159.84C299.88 157.78 293.8 155.16 290.5 154.03C287.2 152.89 281.13 151.33 277 150.56C272.88 149.79 265.9 148.94 261.5 148.67C257.1 148.4 249.9 148.53 245.5 148.96C241.1 149.39 234.35 150.53 230.5 151.5ZM258.5 198.41C265.05 198.64 269.54 199.44 275 201.37C279.13 202.82 284.86 205.58 287.75 207.5C290.64 209.43 294.8 212.8 297 215C299.2 217.2 302.82 221.81 305.05 225.25C307.28 228.69 310.1 234.65 311.3 238.5C312.99 243.88 313.49 247.93 313.48 256C313.46 264.4 312.98 267.9 311.07 273.5C309.76 277.35 307 283.2 304.93 286.5C302.86 289.8 298.77 294.78 295.84 297.57C292.9 300.35 288.25 303.94 285.5 305.54C282.75 307.14 277.69 309.48 274.25 310.73C270.81 311.98 264.74 313.28 260.75 313.63C255.63 314.08 251 313.76 245 312.54C240.32 311.59 233.57 309.39 230 307.65C225.51 305.48 221.01 302.02 215.46 296.5C209.75 290.82 206.52 286.62 204.32 282C202.61 278.43 200.64 273.48 199.93 271C199.22 268.52 198.61 261.77 198.58 256C198.53 247.65 198.97 244.17 200.74 239C201.97 235.43 204.58 229.8 206.54 226.5C208.51 223.2 212.01 218.53 214.31 216.12C216.61 213.72 221.2 209.99 224.5 207.83C227.8 205.68 232.97 203 236 201.87C239.03 200.75 243.3 199.44 245.5 198.96C247.7 198.48 253.55 198.24 258.5 198.41Z" />
</svg>