<svg width="84" height="84" viewBox="0 0 84 84" fill="none" xmlns="http://www.w3.org/2000/svg">
<circle cx="42" cy="42" r="41" fill="#070707" stroke="#070707" stroke-width="2" stroke-linejoin="round"/>
<mask id="path-2-outside-1" maskUnits="userSpaceOnUse" x="0" y="0" width="61" height="84" fill="black">
<rect fill="white" width="61" height="84"/>
<path fill-rule="evenodd" clip-rule="evenodd" d="M44.9394 2.10636C43.9688 2.03586 42.9886 2 42 2C19.9086 2 2 19.9086 2 42C2 64.0914 19.9086 82 42 82C47.7773 82 53.2685 80.7752 58.2281 78.5711C39.3988 73.9193 25.4667 57.2801 25.4667 37.4667C25.4667 22.7013 33.204 9.69867 44.9394 2.10636Z"/>
</mask>
<path fill-rule="evenodd" clip-rule="evenodd" d="M44.9394 2.10636C43.9688 2.03586 42.9886 2 42 2C19.9086 2 2 19.9086 2 42C2 64.0914 19.9086 82 42 82C47.7773 82 53.2685 80.7752 58.2281 78.5711C39.3988 73.9193 25.4667 57.2801 25.4667 37.4667C25.4667 22.7013 33.204 9.69867 44.9394 2.10636Z" fill="white"/>
<path d="M44.9394 2.10636L46.0258 3.78558C46.7476 3.31861 47.0902 2.44264 46.8768 1.60988C46.6634 0.777116 45.9417 0.17389 45.0843 0.111615L44.9394 2.10636ZM58.2281 78.5711L59.0404 80.3988C59.8214 80.0517 60.2955 79.2467 60.2204 78.3954C60.1453 77.544 59.5375 76.8345 58.7078 76.6295L58.2281 78.5711ZM42 4C42.9402 4 43.8721 4.03411 44.7945 4.10111L45.0843 0.111615C44.0655 0.0376198 43.037 0 42 0V4ZM4 42C4 21.0132 21.0132 4 42 4V0C18.804 0 0 18.804 0 42H4ZM42 80C21.0132 80 4 62.9868 4 42H0C0 65.196 18.804 84 42 84V80ZM57.4159 76.7435C52.707 78.8361 47.4921 80 42 80V84C48.0625 84 53.83 82.7143 59.0404 80.3988L57.4159 76.7435ZM58.7078 76.6295C40.7193 72.1854 27.4667 56.3077 27.4667 37.4667H23.4667C23.4667 58.2525 38.0783 75.6532 57.7485 80.5127L58.7078 76.6295ZM27.4667 37.4667C27.4667 23.4223 34.8234 11.0331 46.0258 3.78558L43.853 0.427142C31.5846 8.36427 23.4667 21.9803 23.4667 37.4667H27.4667Z" fill="#070707" mask="url(#path-2-outside-1)"/>
</svg>
