<svg version="1.2" baseProfile="tiny-ps" xmlns="http://www.w3.org/2000/svg" viewBox="0 0 512 512" width="512" height="512">
	<title>gauge</title>
	<style>
		tspan { white-space:pre }
		.shp0 { fill: #000000 } 
	</style>
	<path id="Path 0" fill-rule="evenodd" class="shp0" d="M254.75 0.11C269.34 0.03 277.45 0.5 288.25 2.05C296.09 3.18 307.45 5.22 313.5 6.58C319.55 7.94 330.35 11.02 337.5 13.41C344.65 15.81 354.55 19.59 359.5 21.82C364.45 24.06 373.23 28.45 379 31.59C384.77 34.73 393.32 39.86 398 42.99C402.68 46.12 411 52.29 416.5 56.71C422 61.12 431.17 69.4 436.87 75.11C442.58 80.83 450.86 90 455.28 95.5C459.7 101 465.88 109.33 469.01 114C472.14 118.67 477.27 127.22 480.41 133C483.55 138.78 487.95 147.55 490.19 152.5C492.42 157.45 496.41 168.03 499.04 176C501.67 183.97 504.97 196.13 506.37 203C507.76 209.88 509.6 220.9 510.46 227.5C511.31 234.1 512.01 246.7 512 255.5C512 264.3 511.31 277.13 510.47 284C509.62 290.88 507.79 302.13 506.38 309C504.98 315.88 501.61 328.25 498.88 336.5C496.16 344.75 490.65 358.25 486.65 366.5C482.64 374.75 476.69 385.77 473.42 391C470.15 396.23 464.1 404.98 459.98 410.45C455.87 415.93 447.1 426.01 440.5 432.85C433.9 439.69 424 448.99 418.5 453.51C413 458.04 403.32 465.2 397 469.43C390.68 473.66 378.3 480.67 369.5 485.01C360.7 489.35 349.23 494.47 344 496.38C338.77 498.29 328.43 501.46 321 503.43C313.57 505.39 299.85 508.12 290.5 509.5C277.17 511.47 269.62 512.01 255.5 511.99C241.48 511.97 233.85 511.42 221 509.48C211.93 508.11 198.43 505.38 191 503.42C183.57 501.46 173.22 498.29 168 496.37C162.78 494.45 151.75 489.57 143.5 485.52C135.25 481.47 124.45 475.59 119.5 472.45C114.55 469.32 106.22 463.56 101 459.65C95.78 455.75 84.29 445.34 75.47 436.53C66.66 427.71 56.09 416 51.99 410.5C47.89 405 41.85 396.23 38.58 391C35.3 385.77 29.36 374.75 25.38 366.5C21.4 358.25 16.1 345.43 13.59 338C11.09 330.57 7.94 319.55 6.58 313.5C5.23 307.45 3.19 295.75 2.06 287.5C0.68 277.52 -0.01 267.15 0 256.5C0 247.7 0.69 234.88 1.53 228C2.38 221.13 4.22 209.88 5.62 203C7.03 196.13 10.33 183.97 12.96 176C15.59 168.03 19.58 157.45 21.81 152.5C24.05 147.55 28.45 138.78 31.59 133C34.73 127.22 39.86 118.67 42.99 114C46.12 109.33 52.29 101 56.71 95.5C61.12 90 69.4 80.83 75.11 75.13C80.83 69.42 90 61.14 95.5 56.72C101 52.3 109.33 46.12 114 42.99C118.67 39.86 127.22 34.73 133 31.59C138.78 28.45 147.55 24.05 152.5 21.81C157.45 19.58 168.03 15.6 176 12.98C183.97 10.36 195 7.26 200.5 6.08C206 4.91 216.13 3.11 223 2.08C231.53 0.81 241.62 0.18 254.75 0.11ZM242 72C239.5 74.5 237.59 77.59 236.9 80.25C236.29 82.59 236.07 86.53 236.42 89C236.76 91.47 238.08 95.08 239.34 97C240.6 98.92 243.4 101.63 245.56 103C248.73 105.01 250.78 105.5 256.07 105.5C261.44 105.5 263.37 105.03 266.57 102.94C268.73 101.53 271.63 98.6 273 96.44C275.01 93.28 275.5 91.22 275.5 86C275.5 80.78 275.01 78.72 273 75.56C271.63 73.4 268.93 70.58 267 69.3C264.78 67.83 261.48 66.81 258 66.52C254.97 66.27 251.04 66.5 249.25 67.03C247.46 67.56 244.2 69.8 242 72ZM121.31 122.12C120.1 123.43 118.41 126.19 117.56 128.25C116.7 130.31 116.01 133.91 116.01 136.25C116.02 138.63 117.01 142.47 118.26 144.96C119.74 147.92 122.02 150.36 125 152.2C127.47 153.73 131.07 155.24 133 155.56C134.93 155.89 138.53 155.62 141 154.96C143.95 154.19 146.93 152.35 149.64 149.64C152.35 146.93 154.19 143.95 154.96 141C155.62 138.53 155.89 134.93 155.56 133C155.24 131.07 153.73 127.47 152.2 125C150.36 122.02 147.92 119.74 144.96 118.26C142.31 116.94 138.67 116.03 136 116.04C133.53 116.04 129.7 116.87 127.5 117.89C125.3 118.91 122.51 120.81 121.31 122.12ZM322.77 167.79L279.05 211.5C269.32 207.88 263.13 206.59 259 206.29C253.77 205.92 249.61 206.24 245.25 207.38C241.81 208.27 236.19 210.42 232.75 212.15C229.31 213.89 223.98 217.82 220.9 220.9C217.82 223.98 213.89 229.31 212.15 232.75C210.42 236.19 208.32 241.59 207.49 244.75C206.67 247.91 205.99 252.97 205.99 256C205.99 259.02 206.67 264.09 207.49 267.25C208.32 270.41 210.42 275.81 212.15 279.25C213.89 282.69 217.82 288.02 220.9 291.1C223.98 294.18 229.31 298.11 232.75 299.85C236.19 301.58 241.59 303.68 244.75 304.51C247.91 305.33 252.97 306.01 256 306.01C259.02 306.01 264.09 305.33 267.25 304.51C270.41 303.68 275.81 301.58 279.25 299.85C282.69 298.11 288.02 294.18 291.1 291.1C294.18 288.02 298.11 282.69 299.85 279.25C301.58 275.81 303.73 270.19 304.62 266.75C305.76 262.39 306.08 258.23 305.71 253C305.41 248.88 304.12 242.68 302.83 239.24L300.5 232.97C369 164.41 389.37 143.26 389.95 141.75C390.53 140.24 391 137.31 391 135.25C390.99 133.19 390.09 130.04 389 128.25C387.9 126.46 385.54 124.1 383.75 123C381.92 121.88 378.75 121.01 376.5 121.01C374.3 121.01 371.15 121.7 369.5 122.55C367.85 123.4 346.82 143.76 322.77 167.79ZM72 242C69.5 244.5 67.59 247.59 66.9 250.25C66.29 252.59 66.07 256.52 66.42 259C66.76 261.48 68.08 265.07 69.34 267C70.6 268.93 73.4 271.63 75.56 273C78.73 275.01 80.78 275.5 86.07 275.5C91.44 275.5 93.37 275.03 96.57 272.94C98.73 271.53 101.63 268.6 103 266.44C105.01 263.28 105.5 261.22 105.5 256C105.5 250.78 105.01 248.72 103 245.56C101.63 243.4 98.92 240.58 97 239.3C94.78 237.83 91.48 236.81 88 236.52C84.97 236.27 81.04 236.5 79.25 237.03C77.46 237.56 74.2 239.8 72 242ZM412 242C409.5 244.5 407.59 247.59 406.9 250.25C406.29 252.59 406.07 256.52 406.42 259C406.76 261.48 408.08 265.07 409.34 267C410.6 268.93 413.4 271.63 415.56 273C418.73 275.01 420.78 275.5 426.07 275.5C431.44 275.5 433.37 275.03 436.57 272.94C438.73 271.53 441.63 268.6 443 266.44C445.01 263.28 445.5 261.22 445.5 256C445.5 250.78 445.01 248.72 443 245.56C441.63 243.4 438.93 240.58 437 239.3C434.78 237.83 431.48 236.81 428 236.52C424.98 236.27 421.04 236.5 419.25 237.03C417.46 237.56 414.2 239.8 412 242ZM73.36 389C75.55 392.02 80.8 398.55 85.03 403.5C89.25 408.45 96.71 416.25 101.6 420.84C106.5 425.42 114.55 432.23 119.5 435.97C124.45 439.71 132.32 445.15 137 448.06C141.68 450.97 151.35 456.18 158.5 459.63C165.65 463.09 177.57 467.91 185 470.36C192.43 472.8 203 475.73 208.5 476.87C214 478.01 224.35 479.63 231.5 480.47C238.65 481.31 249.68 482 256 482C262.32 482 273.35 481.31 280.5 480.47C287.65 479.63 298 478.01 303.5 476.87C309 475.73 319.57 472.8 327 470.36C334.43 467.91 346.35 463.09 353.5 459.65C360.65 456.2 370.77 450.7 376 447.43C381.23 444.15 389.53 438.33 394.45 434.49C399.37 430.64 406.97 424.13 411.34 420C415.71 415.88 422.74 408.45 426.97 403.5C431.19 398.55 436.45 392.02 438.64 389C440.83 385.98 442.94 382.94 443.31 382.25C443.86 381.25 406.08 381 255.9 381C105.66 381 67.95 381.25 68.58 382.25C69.02 382.94 71.17 385.98 73.36 389ZM258 236.52C261.48 236.81 264.7 237.81 266.77 239.24C268.56 240.48 271.26 243.26 272.77 245.41C275.08 248.73 275.5 250.35 275.5 256C275.5 261.65 275.08 263.27 272.77 266.59C271.26 268.74 268.37 271.63 266.34 273C263.32 275.05 261.44 275.5 256 275.5C250.56 275.5 248.68 275.05 245.66 273C243.63 271.63 240.86 268.93 239.51 267C238.16 265.07 236.77 261.48 236.42 259C236.08 256.52 236.26 252.7 236.83 250.5C237.48 248.02 239.51 244.86 242.19 242.18C244.56 239.8 247.85 237.46 249.5 236.96C251.15 236.47 254.97 236.27 258 236.52Z" />
</svg>