<svg version="1.2" baseProfile="tiny-ps" xmlns="http://www.w3.org/2000/svg" viewBox="0 0 512 512" width="512" height="512">
	<title>humidity</title>
	<style>
		tspan { white-space:pre }
		.shp0 { fill: #000000 } 
	</style>
	<path id="Path 0" fill-rule="evenodd" class="shp0" d="M255.89 -0.04C260.99 -0.07 261.88 0.26 265.75 3.71C268.12 5.82 274.06 13.94 279.13 22C284.14 29.98 292.55 42.58 297.81 50C303.07 57.42 312.34 70.03 318.42 78C324.49 85.97 337.38 102.63 347.05 115C356.72 127.38 369.34 143.8 375.09 151.5C380.84 159.2 390.02 172.03 395.49 180C400.96 187.97 408.52 199.68 412.28 206C416.04 212.32 421.96 223.35 425.44 230.5C428.93 237.65 433.45 248 435.51 253.5C437.56 259 440.5 268.45 442.04 274.5C443.58 280.55 445.61 290.9 446.54 297.5C447.48 304.1 448.23 314.45 448.23 320.5C448.22 326.55 447.47 336.9 446.57 343.5C445.67 350.1 443.62 360.68 442.02 367C440.42 373.32 437.57 382.55 435.68 387.5C433.8 392.45 430.34 400.32 427.99 405C425.64 409.68 421.63 416.88 419.08 421C416.53 425.13 411.53 432.32 407.98 437C404.43 441.68 397.02 450.01 391.51 455.51C386.01 461.02 377.68 468.43 373 471.98C368.32 475.53 361.13 480.53 357 483.08C352.88 485.63 345.45 489.75 340.5 492.23C335.55 494.71 326.32 498.54 320 500.75C313.68 502.95 304.23 505.68 299 506.81C293.77 507.94 285.56 509.57 280.75 510.43C275.19 511.43 266.16 512 256 512C245.84 512 236.81 511.43 231.25 510.43C226.44 509.57 218.22 507.94 213 506.81C207.78 505.68 198.32 502.95 192 500.75C185.68 498.54 176.45 494.71 171.5 492.23C166.55 489.75 159.13 485.63 155 483.08C150.88 480.53 143.68 475.53 139 471.98C134.32 468.43 125.99 461.02 120.49 455.51C114.98 450.01 107.57 441.68 104.02 437C100.47 432.32 95.47 425.13 92.92 421C90.37 416.88 86.36 409.68 84.01 405C81.66 400.32 78.2 392.45 76.32 387.5C74.43 382.55 71.58 373.32 69.98 367C68.38 360.68 66.33 350.1 65.42 343.5C64.51 336.9 63.77 326.55 63.77 320.5C63.78 314.45 64.55 304.1 65.47 297.5C66.4 290.9 68.42 280.55 69.96 274.5C71.5 268.45 74.44 259 76.49 253.5C78.55 248 83.07 237.65 86.56 230.5C90.04 223.35 95.96 212.32 99.72 206C103.48 199.68 111.04 187.97 116.51 180C121.98 172.03 131.16 159.2 136.91 151.5C142.66 143.8 155.28 127.38 164.95 115C174.62 102.63 187.51 85.97 193.58 78C199.66 70.03 208.93 57.42 214.19 50C219.45 42.58 227.86 29.98 232.87 22C237.89 14.02 243.85 5.81 246.13 3.75C249.86 0.37 250.83 0 255.89 -0.04ZM184.5 197.97C181.75 199.54 177.07 203.23 174.11 206.17C170.76 209.47 167.42 214.16 165.33 218.5C163.31 222.68 161.48 228.53 160.78 233C159.89 238.76 159.9 242.12 160.83 247.5C161.49 251.35 163.47 257.43 165.23 261C167.06 264.71 170.81 269.89 173.97 273.05C177.01 276.11 181.53 279.74 184 281.12C186.47 282.5 190.75 284.35 193.5 285.23C196.25 286.1 200.53 287.06 203 287.35C205.47 287.64 210.43 287.53 214 287.11C217.83 286.65 223.37 285 227.5 283.08C231.35 281.29 236.53 278.14 239 276.07C241.47 274 245.29 269.65 247.47 266.41C249.65 263.16 252.24 258.02 253.22 255C254.2 251.97 255.27 247.03 255.59 244C255.9 240.97 255.69 235.57 255.1 232C254.52 228.43 252.5 222.35 250.6 218.5C248.56 214.33 245.01 209.35 241.83 206.18C238.9 203.25 234.25 199.59 231.5 198.04C228.75 196.49 223.8 194.5 220.5 193.63C217.2 192.75 211.35 192.06 207.5 192.08C203.65 192.11 198.03 192.8 195 193.62C191.97 194.44 187.25 196.4 184.5 197.97ZM243.32 310.15C173.6 380.01 161.03 393.03 160.45 396C160.08 397.93 160.1 401.3 160.48 403.5C160.98 406.29 162.37 408.63 165.09 411.25C167.89 413.94 170.2 415.17 173.25 415.61C176.37 416.06 178.7 415.69 182 414.22C185.51 412.66 204.61 394.07 268.68 329.86C338.33 260.06 350.96 246.97 351.54 244C351.92 242.07 351.95 238.81 351.61 236.75C351.28 234.69 349.76 231.59 348.25 229.87C346.74 228.14 344.26 226.12 342.75 225.37C341.24 224.61 338.09 224 335.75 224C333.31 224.01 330.22 224.81 328.5 225.9C326.85 226.94 288.52 264.85 243.32 310.15ZM281.75 357.65C278.86 359.11 273.88 362.82 270.68 365.9C267.12 369.32 263.58 374.03 261.59 378C259.72 381.72 257.77 387.71 257.05 392C256.32 396.25 256.06 401.67 256.44 404.5C256.81 407.25 257.74 411.75 258.52 414.5C259.29 417.25 261.69 422.2 263.84 425.5C266 428.8 269.51 433.05 271.63 434.93C273.76 436.82 277.52 439.64 280 441.2C282.48 442.76 286.98 444.77 290 445.68C293.23 446.64 299.01 447.32 304 447.32C308.95 447.32 314.8 446.64 318 445.69C321.02 444.79 326.2 442.33 329.5 440.21C332.8 438.1 337.48 434.15 339.89 431.43C342.3 428.72 345.58 423.8 347.16 420.5C348.74 417.2 350.56 411.13 351.2 407C352.07 401.37 352.07 397.75 351.22 392.5C350.56 388.45 348.62 382.55 346.6 378.5C344.56 374.4 340.92 369.32 337.81 366.23C334.89 363.32 330.02 359.64 327 358.04C323.98 356.44 318.8 354.42 315.5 353.56C312.2 352.7 306.8 352.02 303.5 352.06C300.2 352.1 295.14 352.78 292.25 353.57C289.36 354.35 284.64 356.19 281.75 357.65ZM207.93 223.97C211.06 223.95 213.58 224.66 215.91 226.22C217.78 227.47 220.17 229.63 221.22 231C222.27 232.38 223.35 235.53 223.63 238C224.01 241.45 223.59 243.55 221.81 246.98C220.44 249.64 218.08 252.26 216 253.44C213.9 254.63 210.7 255.41 208 255.39C205.53 255.37 202.04 254.6 200.25 253.68C198.46 252.75 195.99 250.54 194.75 248.75C193.06 246.31 192.5 244.08 192.5 239.82C192.5 235.63 193.05 233.41 194.59 231.32C195.74 229.77 198.19 227.49 200.02 226.25C202.25 224.75 204.88 223.99 207.93 223.97ZM303.75 384.04C305.54 384.02 308.46 384.6 310.25 385.33C312.04 386.07 314.74 388.09 316.25 389.83C317.76 391.57 319.28 394.69 319.61 396.75C319.95 398.81 319.9 402.07 319.5 404C319.1 405.93 317.36 408.91 315.64 410.62C313.91 412.34 310.48 414.32 308 415.03C304.34 416.08 302.75 416.08 299.5 415.04C297.3 414.34 294.04 412.24 292.25 410.38C290.27 408.32 288.76 405.53 288.39 403.25C288.05 401.19 288.05 398.04 288.39 396.25C288.72 394.46 290.05 391.59 291.34 389.87C292.63 388.14 295.22 386.14 297.09 385.41C298.97 384.68 301.96 384.06 303.75 384.04Z" />
</svg>