<svg width="81" height="80" viewBox="0 0 81 80" fill="none" xmlns="http://www.w3.org/2000/svg">
<circle cx="39.9998" cy="40" r="39" fill="black" stroke="black" stroke-width="2" stroke-linejoin="round"/>
<mask id="path-2-inside-1" fill="white">
<path fill-rule="evenodd" clip-rule="evenodd" d="M37.2888 79.8936C38.2594 79.9641 39.2396 80 40.2282 80C62.3196 80 80.2282 62.0914 80.2282 40C80.2282 17.9086 62.3196 4.76837e-06 40.2282 4.76837e-06C34.4509 4.76837e-06 28.9597 1.2248 24 3.42889C42.8294 8.08074 56.7615 24.7199 56.7615 44.5333C56.7615 59.2987 49.0242 72.3013 37.2888 79.8936Z"/>
</mask>
<path fill-rule="evenodd" clip-rule="evenodd" d="M37.2888 79.8936C38.2594 79.9641 39.2396 80 40.2282 80C62.3196 80 80.2282 62.0914 80.2282 40C80.2282 17.9086 62.3196 4.76837e-06 40.2282 4.76837e-06C34.4509 4.76837e-06 28.9597 1.2248 24 3.42889C42.8294 8.08074 56.7615 24.7199 56.7615 44.5333C56.7615 59.2987 49.0242 72.3013 37.2888 79.8936Z" fill="white"/>
<path d="M37.2888 79.8936L36.2024 78.2144C35.4806 78.6814 35.138 79.5574 35.3514 80.3901C35.5648 81.2229 36.2865 81.8261 37.1439 81.8884L37.2888 79.8936ZM24 3.42889L23.1878 1.60124C22.4068 1.94832 21.9327 2.75331 22.0078 3.60465C22.0829 4.45599 22.6907 5.16553 23.5204 5.37051L24 3.42889ZM40.2282 78C39.288 78 38.3561 77.9659 37.4336 77.8989L37.1439 81.8884C38.1627 81.9624 39.1912 82 40.2282 82V78ZM78.2282 40C78.2282 60.9868 61.215 78 40.2282 78V82C63.4241 82 82.2282 63.196 82.2282 40H78.2282ZM40.2282 2C61.215 2 78.2282 19.0132 78.2282 40H82.2282C82.2282 16.804 63.4241 -2 40.2282 -2L40.2282 2ZM24.8123 5.25654C29.5212 3.16388 34.7361 2 40.2282 2L40.2282 -2C34.1657 -2 28.3982 -0.714289 23.1878 1.60124L24.8123 5.25654ZM23.5204 5.37051C41.5088 9.81463 54.7615 25.6924 54.7615 44.5333H58.7615C58.7615 23.7475 44.1499 6.34685 24.4797 1.48727L23.5204 5.37051ZM54.7615 44.5333C54.7615 58.5777 47.4048 70.9669 36.2024 78.2144L38.3751 81.5729C50.6435 73.6357 58.7615 60.0197 58.7615 44.5333H54.7615Z" fill="black" mask="url(#path-2-inside-1)"/>
</svg>
