<svg version="1.2" baseProfile="tiny-ps" xmlns="http://www.w3.org/2000/svg" viewBox="0 0 512 512" width="512" height="512">
	<title>thermometer</title>
	<style>
		tspan { white-space:pre }
		.shp0 { fill: #000000 } 
	</style>
	<path id="Path 0" fill-rule="evenodd" class="shp0" d="M255.5 0.08C264.21 0.02 268.48 0.53 276 2.51C281.23 3.89 289.32 6.9 294 9.21C298.68 11.52 305.84 16.13 309.92 19.46C314 22.78 319.8 28.65 322.82 32.5C325.84 36.35 330.23 43.55 332.58 48.5C334.92 53.45 337.65 60.2 338.64 63.5C340.31 69.08 340.46 77.18 341.12 288.5L349.21 297C353.67 301.68 359.43 308.65 362.02 312.5C364.6 316.35 368.36 322.76 370.36 326.75C372.36 330.74 375.4 338.16 377.11 343.25C378.81 348.34 381.06 357 382.11 362.5C383.25 368.52 384 376.88 384 383.5C384 389.55 383.28 398.55 382.41 403.5C381.53 408.45 379.7 416.32 378.34 421C376.98 425.68 374.07 433.32 371.87 438C369.67 442.68 365.33 450.32 362.22 455C359.11 459.68 352.66 467.55 347.89 472.5C343.12 477.45 335.68 484.05 331.36 487.17C327.04 490.29 319.68 494.88 315 497.37C310.32 499.85 302.45 503.22 297.5 504.86C292.55 506.5 284 508.78 278.5 509.92C271.45 511.39 264.81 512.01 256 512.01C247.19 512.01 240.55 511.39 233.5 509.92C228 508.78 219.56 506.52 214.75 504.92C209.94 503.31 203.19 500.6 199.75 498.89C196.31 497.18 189.68 493.26 185 490.17C180.32 487.09 172.45 480.66 167.5 475.89C162.55 471.12 155.95 463.68 152.83 459.36C149.71 455.04 145.12 447.68 142.63 443C140.15 438.32 136.77 430.45 135.12 425.5C133.47 420.55 131.19 411.77 130.05 406C128.7 399.2 127.97 391.63 127.98 384.5C127.98 378.12 128.78 369.09 129.87 363C130.91 357.23 133.16 348.34 134.88 343.25C136.6 338.16 139.64 330.74 141.64 326.75C143.64 322.76 147.4 316.35 149.98 312.5C152.57 308.65 158.33 301.68 170.88 288.5L171.22 179C171.54 77.18 171.69 69.08 173.36 63.5C174.35 60.2 177.08 53.45 179.42 48.5C181.77 43.55 186.16 36.35 189.18 32.5C192.2 28.65 198 22.78 202.08 19.46C206.16 16.13 213.32 11.52 218 9.21C222.68 6.9 230.55 3.91 235.5 2.58C242.33 0.73 247.16 0.13 255.5 0.08ZM235.5 48.25C232.75 49.67 228.43 53.01 225.9 55.67C223.37 58.33 220.36 62.08 219.2 64C218.04 65.92 216.3 69.75 215.33 72.5C213.69 77.15 213.55 85.63 213.29 192.5L213.01 307.5C194.54 324.91 188.79 331.41 185.07 337C181.96 341.68 178.24 348.65 176.81 352.5C175.37 356.35 173.41 363.32 172.46 368C171.13 374.52 170.85 379.3 171.28 388.5C171.72 398.07 172.43 402.32 174.78 409.5C176.41 414.45 178.53 420.07 179.5 422C180.48 423.93 183.43 428.65 186.07 432.5C188.7 436.35 193.48 442 196.68 445.06C199.88 448.12 205.43 452.59 209 454.99C212.57 457.4 217.75 460.36 220.5 461.56C223.25 462.77 228.88 464.82 233 466.11C239.52 468.15 242.53 468.45 256 468.45C269.47 468.45 272.48 468.15 279 466.11C283.13 464.82 288.75 462.77 291.5 461.56C294.25 460.36 299.43 457.4 303 454.99C306.57 452.59 312.12 448.12 315.32 445.06C318.52 442 323.3 436.35 325.93 432.5C328.57 428.65 331.52 423.93 332.5 422C333.47 420.07 335.59 414.45 337.21 409.5C339.52 402.46 340.28 397.99 340.71 389C341.02 382.43 340.77 374.39 340.13 370.25C339.51 366.26 337.56 359.06 335.8 354.25C334.02 349.38 330.1 341.73 326.94 337C323.23 331.43 317.43 324.88 310.13 318L298.99 307.5C298.46 91.28 298.24 76.96 296.87 73C296.01 70.53 294.13 66.47 292.7 64C291.27 61.52 287.93 57.39 285.3 54.8C282.57 52.13 277.48 48.7 273.5 46.84C267.49 44.03 265.23 43.53 257.5 43.3C251.96 43.13 246.96 43.53 244.5 44.35C242.3 45.08 238.25 46.84 235.5 48.25ZM235 171L277 171L277.07 323.5L285.28 327.46C291.58 330.5 295.26 333.18 301.04 338.96C306.77 344.7 309.58 348.53 312.78 355C315.09 359.68 317.65 366.65 318.47 370.5C319.29 374.35 319.97 380.43 319.97 384C319.97 387.57 319.29 393.65 318.47 397.5C317.65 401.35 315.09 408.32 312.78 413C309.58 419.47 306.77 423.3 301.04 429.04C295.3 434.77 291.47 437.58 285 440.78C280.32 443.09 273.35 445.65 269.5 446.47C265.65 447.29 259.57 447.97 256 447.97C252.43 447.97 246.35 447.29 242.5 446.47C238.65 445.65 231.68 443.09 227 440.78C220.53 437.58 216.7 434.77 210.96 429.04C205.23 423.3 202.42 419.47 199.22 413C196.91 408.32 194.35 401.35 193.53 397.5C192.71 393.65 192.03 387.57 192.03 384C192.03 380.43 192.71 374.35 193.53 370.5C194.35 366.65 196.91 359.68 199.22 355C202.42 348.53 205.23 344.7 210.96 338.96C216.74 333.18 220.42 330.5 234.93 323.5L235 171Z" />
</svg>