<svg version="1.2" baseProfile="tiny-ps" xmlns="http://www.w3.org/2000/svg" viewBox="0 0 512 512" width="512" height="512">
	<title>water-drop</title>
	<style>
		tspan { white-space:pre }
		.shp0 { fill: #55c2eb } 
		.shp1 { fill: #97dbff } 
		.shp2 { fill: #b8f4ff } 
	</style>
	<g id="Background">
		<path id="Path 0" class="shp0" d="M243.5 1.36C241.3 2.08 237.7 3.59 235.5 4.72C233.3 5.84 229.38 8.73 226.79 11.13C223.86 13.85 198.41 49.66 159.37 106C124.88 155.78 94.3 200.1 91.43 204.5C88.55 208.9 83.7 217.22 80.63 223C77.57 228.78 73.3 238 71.14 243.5C68.99 249 65.86 259.13 64.19 266C62.52 272.88 60.58 281.88 59.88 286C59.15 290.29 58.6 301.84 58.59 313C58.58 327 59.08 335.6 60.36 343.5C61.34 349.55 62.99 357.88 64.02 362C65.06 366.13 67.55 374.23 69.56 380C71.56 385.77 75.38 395 78.03 400.5C80.68 406 84.76 413.65 87.09 417.5C89.42 421.35 94.49 428.77 98.35 434C102.22 439.23 109.46 447.72 114.44 452.88C119.42 458.03 126.65 464.84 130.5 468C134.35 471.17 142 476.77 147.5 480.45C153 484.12 162.45 489.55 168.5 492.5C174.55 495.45 184 499.41 189.5 501.3C195 503.19 203.55 505.69 208.5 506.85C213.45 508.01 222.22 509.64 228 510.46C234.1 511.33 245.83 511.97 256 511.97C265.63 511.98 276.43 511.51 280 510.93C283.57 510.36 286.84 509.57 287.25 509.19C287.66 508.81 285.18 507.9 281.75 507.16C278.31 506.43 270.55 504.24 264.5 502.3C258.45 500.37 248.32 496.33 242 493.33C235.68 490.33 227.8 486.24 224.5 484.25C221.2 482.26 214.22 477.48 209 473.63C203.78 469.78 195.06 462.32 189.64 457.06C184.22 451.8 176.74 443.68 173.02 439C169.3 434.32 163.77 426.68 160.75 422C157.72 417.32 152.87 408.77 149.98 403C147.08 397.23 142.95 387.55 140.78 381.5C138.62 375.45 135.77 366 134.45 360.5C133.13 355 131.36 345.89 130.52 340.25C129.63 334.25 129.01 323.26 129.02 313.75C129.03 304.81 129.67 293 130.45 287.5C131.23 282 132.58 274.35 133.47 270.5C134.36 266.65 136.14 260.13 137.45 256C138.75 251.88 141.25 244.9 143.01 240.5C144.76 236.1 147.57 229.8 149.24 226.5C150.91 223.2 154.6 216.68 157.45 212C160.3 207.32 188.67 165.93 220.5 120C259.69 63.45 278.8 35.05 279.7 32C280.43 29.52 281.02 26.38 281.02 25C281.02 23.63 280.37 20.25 279.58 17.5C278.52 13.8 276.62 10.93 272.32 6.5L266.5 0.5C251.23 0.13 245.93 0.56 243.5 1.36Z" />
		<path id="Path 1" class="shp1" d="M268.06 1.74C268.07 2.16 270.31 4.64 273.04 7.25C276.77 10.82 278.38 13.3 279.51 17.25C280.34 20.14 281.02 23.63 281.02 25C281.02 26.38 280.43 29.52 279.7 32C278.8 35.05 259.69 63.45 220.5 120C188.67 165.93 160.3 207.32 157.45 212C154.6 216.68 150.91 223.2 149.24 226.5C147.57 229.8 144.76 236.1 143.01 240.5C141.25 244.9 138.75 251.88 137.45 256C136.14 260.13 134.36 266.65 133.47 270.5C132.58 274.35 131.23 282 130.45 287.5C129.67 293 129.03 304.81 129.02 313.75C129.01 323.26 129.63 334.25 130.52 340.25C131.36 345.89 133.13 355 134.45 360.5C135.77 366 138.62 375.45 140.78 381.5C142.95 387.55 147.08 397.23 149.98 403C152.87 408.77 157.72 417.32 160.75 422C163.77 426.68 169.3 434.32 173.02 439C176.74 443.68 184.22 451.8 189.64 457.06C195.06 462.32 203.78 469.78 209 473.63C214.22 477.48 221.2 482.26 224.5 484.25C227.8 486.24 235.68 490.33 242 493.33C248.32 496.33 258.45 500.37 264.5 502.3C270.55 504.24 278.29 506.43 281.69 507.16C285.09 507.9 287.68 508.84 287.44 509.25C287.2 509.66 287.56 509.99 288.25 509.98C288.94 509.97 293.55 509.06 298.5 507.97C303.45 506.87 311.32 504.81 316 503.39C320.68 501.97 328.55 499.08 333.5 496.98C338.45 494.88 346.32 491.05 351 488.47C355.68 485.89 362.88 481.51 367 478.73C371.13 475.95 377.88 470.86 382 467.42C386.13 463.97 392.7 457.86 396.61 453.83C400.52 449.8 406.11 443.57 409.03 440C411.96 436.43 417.32 429 420.96 423.5C424.6 418 430.1 408.32 433.19 402C436.27 395.68 440.85 384.43 443.35 377C445.86 369.57 448.81 358.77 449.92 353C451.03 347.23 452.4 338.11 452.97 332.75C453.53 327.39 454 318.73 454 313.5C454 308.27 453.52 299.61 452.94 294.25C452.36 288.89 450.99 280 449.89 274.5C448.79 269 446.1 259.1 443.91 252.5C441.71 245.9 437.54 235.55 434.63 229.5C431.72 223.45 427.11 214.9 424.38 210.5C421.65 206.1 391.81 162.68 358.07 114C324.33 65.32 294.31 22.24 291.36 18.25C288.12 13.86 283.93 9.63 280.75 7.54C277.86 5.64 273.82 3.38 271.77 2.53C269.72 1.67 268.05 1.32 268.06 1.74Z" />
		<path id="Path 2" class="shp2" d="M380.5 302.86C378.3 303.86 375.13 306.21 373.44 308.09C371.76 309.96 369.79 313.3 369.07 315.5C368.34 317.7 367.91 322.04 368.12 325.15C368.41 329.4 369.25 331.88 371.51 335.15C373.51 338.04 376.35 340.43 380.01 342.27C383.65 344.1 387.02 345.02 390 344.99C392.48 344.97 396.3 344.13 398.5 343.12C400.7 342.11 403.8 339.98 405.39 338.39C406.98 336.8 409.11 333.7 410.12 331.5C411.13 329.3 411.96 325.7 411.97 323.5C411.98 321.3 411.55 317.93 411.01 316C410.48 314.07 408.57 310.73 406.77 308.57C404.97 306.41 401.7 303.83 399.5 302.84C397.21 301.81 393.15 301.04 390 301.04C386.82 301.04 382.81 301.81 380.5 302.86ZM339.5 367.99C337.3 368.41 333.48 369.62 331 370.68C328.52 371.74 324.5 374.61 322.05 377.05C319.6 379.5 316.47 383.98 315.08 387C313.38 390.71 312.44 394.77 312.19 399.5C311.91 404.78 312.32 407.85 313.86 412C314.98 415.02 317.64 419.52 319.77 422C321.91 424.48 325.64 427.67 328.07 429.09C330.51 430.52 334.75 432.28 337.5 433C340.31 433.74 344.91 434.09 348 433.81C351.02 433.53 355.98 432.18 359 430.81C362.02 429.43 366.44 426.33 368.82 423.91C371.2 421.48 374 417.7 375.04 415.5C376.09 413.3 377.39 409.25 377.93 406.5C378.52 403.52 378.58 399.28 378.07 396C377.61 392.98 376.09 388.25 374.7 385.5C373.31 382.75 370.45 378.84 368.34 376.8C366.23 374.77 362.02 372 359 370.66C355.98 369.31 351.25 367.99 348.5 367.72C345.75 367.44 341.7 367.56 339.5 367.99Z" />
	</g>
</svg>