<svg version="1.2" baseProfile="tiny-ps" xmlns="http://www.w3.org/2000/svg" viewBox="0 0 512 512" width="512" height="512">
	<title>Background</title>
	<style>
		tspan { white-space:pre }
		.shp0 { fill: #00c3ff } 
		.shp1 { fill: #00aaf0 } 
		.shp2 { fill: #ffea84 } 
		.shp3 { fill: #ffffff } 
		.shp4 { fill: #f2f2f2 } 
	</style>
	<g id="Background">
		<path id="Path 0" class="shp0" d="M89 0.71C87.63 0.95 83.13 1.99 79 3.02C74.88 4.05 67.9 6.39 63.5 8.22C59.1 10.05 51.67 14.08 47 17.17C42.32 20.26 34.97 26.33 30.65 30.65C26.33 34.97 20.26 42.32 17.17 47C14.08 51.67 10.05 59.1 8.22 63.5C6.39 67.9 3.9 75.1 2.69 79.5L0.5 87.5L0.5 424.5C3.9 436.9 6.39 444.1 8.22 448.5C10.05 452.9 14.08 460.32 17.17 465C20.26 469.67 26.33 477.03 30.65 481.35C34.97 485.67 42.32 491.74 47 494.83C51.67 497.92 59.1 501.95 63.5 503.78C67.9 505.61 74.88 508.08 79 509.26C86.37 511.37 87.98 511.42 171.25 511.71L256 512L256 361C198.99 361.02 181.15 360.58 178 359.99C174.97 359.42 169.69 357.62 166.25 355.98C162.6 354.24 157.71 350.71 154.5 347.5C151.35 344.35 147.71 339.33 145.98 335.75C144.32 332.31 142.44 326.35 141.81 322.5C140.92 317.11 140.94 313.89 141.88 308.5C142.57 304.56 144.5 298.89 146.3 295.53L149.5 289.56C135.47 284.86 128.79 281.92 125.61 280C122.43 278.07 117.5 274.53 114.66 272.13C111.82 269.73 107.47 265.37 105 262.46C102.52 259.54 98.92 254.54 97 251.34C95.07 248.14 92.31 242.14 90.86 238.01C89.41 233.88 87.66 226.9 86.96 222.5C86.2 217.69 85.93 211.12 86.3 206C86.63 201.32 87.57 195.02 88.37 192C89.18 188.97 90.76 184.02 91.87 181C92.99 177.97 96.1 172.13 98.79 168C101.47 163.88 106.33 157.84 109.58 154.58C112.84 151.33 118.88 146.47 123 143.79C127.13 141.1 132.97 137.99 136 136.87C139.02 135.75 144.2 134.09 147.5 133.19C151.58 132.07 157.49 131.54 166 131.54C174.51 131.54 180.42 132.07 184.5 133.19C187.8 134.09 192.97 135.75 196 136.87C199.02 137.99 204.88 141.1 209 143.79C213.13 146.47 219.16 151.33 222.42 154.58C225.67 157.84 230.53 163.88 233.22 168C235.9 172.13 238.64 177.01 239.3 178.86C240.49 182.2 240.54 182.22 245.5 181.62C248.25 181.29 251.74 181.01 253.25 181.01L256 181L256 0C128.51 0.21 90.38 0.47 89 0.71Z" />
		<path id="Path 1" class="shp1" d="M256.02 90.22L255.98 180.5C267.23 181.63 273.2 182.64 276.5 183.48C279.8 184.32 286.55 187.01 291.5 189.45C296.45 191.9 303.2 196.08 306.5 198.75C309.8 201.43 314.87 206.51 317.77 210.06C320.66 213.6 324.79 219.88 326.94 224C329.09 228.13 331.67 234.32 332.67 237.77C333.68 241.22 334.95 244.02 335.5 243.99C336.05 243.95 339.2 243.28 342.5 242.48C345.8 241.68 351.88 241.03 356 241.03C360.13 241.03 366.42 241.73 370 242.58C373.57 243.43 379.88 245.87 384 248C388.93 250.55 393.83 254.22 398.31 258.69C402.78 263.17 406.45 268.07 409 273C411.13 277.13 413.57 283.42 414.42 287C415.27 290.57 415.97 296.88 415.97 301C415.97 305.13 415.27 311.42 414.42 315C413.57 318.57 411.13 324.88 409 329C406.45 333.93 402.78 338.83 398.31 343.31C393.83 347.78 388.93 351.45 384 354C379.88 356.13 373.57 358.57 370 359.42C364.56 360.72 354.74 360.97 309.75 360.99L256 361L256 512C423.61 511.48 425.67 511.42 433 509.35C437.13 508.19 443.88 505.85 448 504.15C452.13 502.45 459.55 498.41 464.5 495.17C469.45 491.93 477.05 485.73 481.39 481.39C485.73 477.05 491.93 469.45 495.17 464.5C498.41 459.55 502.45 452.13 504.15 448C505.85 443.88 508.2 436.9 509.37 432.5L511.5 424.5L511.5 87.5C508.2 75.1 505.85 68.13 504.15 64C502.45 59.88 498.41 52.45 495.17 47.5C491.93 42.55 485.73 34.95 481.39 30.61C477.05 26.27 469.45 20.07 464.5 16.83C459.55 13.59 452.13 9.55 448 7.85C443.88 6.15 437.13 3.81 433 2.65C425.67 0.58 423.56 0.52 340.78 0.23L256.06 -0.06L256.02 90.22Z" />
		<path id="Path 2" class="shp2" d="M151 132.44C147.42 133.19 141.57 134.87 138 136.17C134.42 137.46 128.87 140.09 125.66 142.01C122.45 143.93 117.5 147.47 114.66 149.87C111.82 152.27 107.47 156.63 105 159.54C102.52 162.46 98.93 167.46 97.01 170.67C95.09 173.88 92.46 179.42 91.17 183C89.88 186.57 88.19 192.76 87.41 196.75C86.64 200.74 86 207.15 86 211C86 214.85 86.64 221.26 87.41 225.25C88.19 229.24 89.88 235.42 91.17 239C92.46 242.57 95.09 248.13 97.01 251.34C98.93 254.55 102.47 259.5 104.87 262.34C107.27 265.18 111.62 269.52 114.52 272C117.43 274.47 122.66 278.2 126.15 280.27C129.64 282.34 136.16 285.26 140.64 286.77L148.78 289.5C157.86 281.16 162.52 277.74 165 276.51C167.47 275.28 171.19 273.76 173.25 273.14L177 272C175.96 260.42 176.21 254.28 176.96 249.5C177.66 245.1 179.41 238.12 180.86 233.99C182.31 229.86 185.07 223.86 187 220.66C188.92 217.46 192.52 212.46 195 209.54C197.47 206.63 201.81 202.27 204.64 199.87C207.47 197.47 212.65 193.8 216.14 191.72C219.64 189.64 226.43 186.71 231.23 185.22C236.07 183.71 239.98 181.94 239.98 181.25C239.99 180.56 239.04 178.09 237.86 175.75C236.68 173.41 234.04 169.02 232 166C229.95 162.97 225.62 157.84 222.39 154.58C219.15 151.33 213.13 146.47 209 143.79C204.88 141.1 199.02 137.99 196 136.87C192.97 135.76 188.02 134.17 185 133.34C181.97 132.52 174.55 131.67 168.5 131.45C161.49 131.2 155.14 131.56 151 132.44Z" />
		<path id="Path 3" class="shp3" d="M243 181.98C240.52 182.38 234.9 183.9 230.5 185.35C226.1 186.8 219.64 189.68 216.14 191.74C212.65 193.81 207.47 197.47 204.64 199.87C201.81 202.27 197.47 206.63 195 209.54C192.52 212.46 188.92 217.46 187 220.66C185.07 223.86 182.31 229.86 180.86 233.99C179.41 238.12 177.66 245.1 176.96 249.5C176.21 254.28 175.96 260.42 176.35 264.75L177 272C171.19 273.76 167.47 275.28 165 276.52C162.52 277.75 158.25 280.77 155.5 283.22C152.53 285.87 149 290.48 146.81 294.59C144.56 298.8 142.63 304.23 141.88 308.5C140.93 313.93 140.91 317.07 141.82 322.5C142.46 326.35 144.34 332.31 145.99 335.75C147.73 339.35 151.33 344.33 154.5 347.5C157.71 350.71 162.6 354.24 166.25 355.98C169.69 357.62 174.97 359.42 178 359.99C181.15 360.58 198.99 361.02 219.75 361.01L256 361L256 181C249.41 181.18 245.47 181.57 243 181.98Z" />
		<path id="Path 4" class="shp4" d="M256.16 270.85L256 361C354.74 360.97 364.56 360.72 370 359.42C373.57 358.57 379.88 356.13 384 354C388.93 351.45 393.83 347.78 398.31 343.31C402.78 338.83 406.45 333.93 409 329C411.13 324.88 413.57 318.57 414.42 315C415.27 311.42 415.97 305.13 415.97 301C415.97 296.88 415.27 290.57 414.42 287C413.57 283.42 411.13 277.13 409 273C406.45 268.07 402.78 263.17 398.31 258.69C393.83 254.22 388.93 250.55 384 248C379.88 245.87 373.57 243.43 370 242.58C366.42 241.73 360.13 241.03 356 241.03C351.88 241.03 345.8 241.68 342.5 242.48C339.2 243.28 336.05 243.95 335.5 243.99C334.95 244.02 333.68 241.22 332.67 237.77C331.67 234.32 329.09 228.13 326.94 224C324.79 219.88 320.86 213.8 318.21 210.5C315.56 207.2 310.49 202.11 306.94 199.2C303.4 196.28 296.45 191.9 291.5 189.45C286.55 187.01 279.8 184.32 276.5 183.48C273.2 182.64 267.31 181.67 263.41 181.33L256.32 180.71L256.16 270.85Z" />
	</g>
</svg>