<svg version="1.2" baseProfile="tiny-ps" xmlns="http://www.w3.org/2000/svg" viewBox="0 0 512 512" width="512" height="512">
	<title>wind</title>
	<style>
		tspan { white-space:pre }
		.shp0 { fill: #000000 } 
	</style>
	<path id="Path 0" class="shp0" d="M252 54.66C250.63 54.88 245.9 55.75 241.5 56.59C236.58 57.52 230.04 59.79 224.5 62.48C219.55 64.88 212.57 69.26 209 72.2C205.43 75.15 200.39 80.47 197.82 84.03C195.24 87.59 191.57 93.88 189.66 98C187.74 102.13 185.46 108.99 184.59 113.25C183.72 117.51 183 123.59 183 126.75C182.99 130.47 183.65 133.73 184.87 136C185.9 137.93 188.27 140.75 190.12 142.28C191.98 143.81 195.3 145.33 197.5 145.66C199.7 145.99 203.19 145.97 205.25 145.63C207.44 145.26 210.56 143.6 212.75 141.65C214.81 139.81 217.03 137 217.67 135.4C218.32 133.81 219.35 128.9 219.97 124.5C220.58 120.1 222.08 114.47 223.29 112C224.51 109.53 227.75 105.25 230.5 102.5C233.25 99.75 237.53 96.51 240 95.3C242.47 94.1 246.97 92.7 250 92.21C253.27 91.67 257.93 91.67 261.5 92.21C264.8 92.7 269.52 94.1 272 95.3C274.48 96.51 278.75 99.75 281.5 102.5C284.25 105.25 287.49 109.53 288.7 112C289.9 114.47 291.3 119.2 291.79 122.5C292.33 126.07 292.33 130.73 291.79 134C291.3 137.03 289.9 141.47 288.7 143.87C287.49 146.28 285.12 149.88 283.43 151.87C281.74 153.87 278.14 156.9 275.43 158.61C272.72 160.33 268.7 162.34 266.5 163.08C263.25 164.19 238.95 164.54 136.82 164.97C11.28 165.5 11.14 165.5 8.32 167.59C6.77 168.74 4.47 171.22 3.22 173.09C1.97 174.97 0.68 177.85 0.36 179.5C0.04 181.15 0.04 184.07 0.36 186C0.68 187.93 1.97 191.07 3.23 193C4.49 194.93 7.54 197.52 10.01 198.76L14.5 201.02C247.33 201 263.98 200.8 270.75 199.44C275.16 198.55 282.38 196 287.5 193.52C292.45 191.12 299.43 186.74 303 183.8C306.57 180.85 311.61 175.53 314.18 171.97C316.76 168.41 320.43 162.13 322.34 158C324.26 153.88 326.54 147.01 327.41 142.75C328.28 138.49 329 131.85 329 128C329 124.15 328.28 117.51 327.41 113.25C326.54 108.99 324.26 102.13 322.34 98C320.43 93.88 316.76 87.59 314.18 84.03C311.61 80.47 306.57 75.15 303 72.2C299.43 69.26 292.45 64.88 287.5 62.48C282.35 59.99 275.29 57.49 271 56.66C266.88 55.85 261.48 54.98 259 54.72C256.52 54.46 253.38 54.43 252 54.66ZM427 128.91C424.52 129.35 420.02 130.51 417 131.48C413.98 132.45 408.57 134.76 405 136.62C401.43 138.48 395.91 142.02 392.75 144.5C389.59 146.97 384.86 151.72 382.25 155.05C379.64 158.38 376.05 163.9 374.27 167.3C372.49 170.71 370.11 176.43 368.97 180C367.83 183.57 366.64 189.88 366.31 194C365.98 198.13 366 203.19 366.36 205.25C366.72 207.39 368.39 210.56 370.25 212.63C372.04 214.62 374.74 216.87 376.25 217.63C377.76 218.38 381.25 219 384 219C386.75 219 390.24 218.38 391.75 217.63C393.26 216.87 395.96 214.62 397.75 212.63C399.54 210.63 401.23 207.54 401.5 205.75C401.78 203.96 402.45 199.57 403.01 196C403.56 192.43 404.88 187.7 405.95 185.5C407.01 183.3 409.82 179.32 412.19 176.64C414.92 173.57 418.87 170.64 422.98 168.64C428.86 165.79 430.34 165.5 438.98 165.5C447.3 165.5 449.22 165.85 454.25 168.25C457.41 169.76 462.02 173.03 464.5 175.5C466.98 177.97 470.24 182.59 471.75 185.75C474.15 190.78 474.5 192.7 474.5 201.02C474.5 209.66 474.21 211.14 471.36 217.02C469.36 221.13 466.43 225.08 463.36 227.81C460.68 230.18 456.7 232.99 454.5 234.05C452.3 235.11 447.8 236.43 444.5 236.99C440.63 237.63 363.56 238 227 238.01C18.12 238.03 15.45 238.05 11.25 240.01C8.18 241.45 6.26 243.32 4.33 246.75C2.54 249.94 1.66 252.98 1.66 256C1.66 259.02 2.54 262.06 4.33 265.25C6.25 268.67 8.19 270.56 11.25 271.99C15.46 273.97 17.58 273.98 234.5 273.74L453.5 273.5C463.57 269.99 469.29 267.51 472.7 265.73C476.1 263.95 481.62 260.36 484.95 257.75C488.28 255.14 493.03 250.41 495.5 247.25C497.98 244.09 501.54 238.57 503.41 235C505.28 231.43 507.86 225.13 509.14 221C511.06 214.84 511.47 211.27 511.47 201C511.47 190.76 511.05 187.14 509.16 181C507.89 176.88 505.26 170.57 503.32 167C501.38 163.43 497.77 158.03 495.31 155C492.84 151.97 488.5 147.56 485.66 145.2C482.82 142.83 477.57 139.25 474 137.24C470.43 135.23 464.13 132.52 460 131.22C454.7 129.54 449.42 128.74 442 128.47C436.23 128.27 429.48 128.46 427 128.91ZM10.01 313.24C7.54 314.48 4.49 317.07 3.23 319C1.97 320.93 0.68 324.07 0.36 326C0.04 327.93 0.04 330.85 0.36 332.5C0.68 334.15 1.97 337.03 3.22 338.91C4.47 340.78 6.77 343.26 8.32 344.41C11.14 346.5 11.28 346.5 136.82 347.03C238.95 347.46 263.25 347.81 266.5 348.92C268.7 349.66 272.72 351.67 275.43 353.39C278.14 355.1 281.74 358.13 283.43 360.13C285.12 362.12 287.49 365.72 288.7 368.13C289.9 370.53 291.3 374.98 291.79 378C292.33 381.27 292.33 385.93 291.79 389.5C291.3 392.8 289.9 397.52 288.7 400C287.49 402.48 284.25 406.75 281.5 409.5C278.75 412.25 274.48 415.49 272 416.7C269.52 417.9 264.8 419.3 261.5 419.79C257.93 420.33 253.27 420.33 250 419.79C246.97 419.3 242.47 417.9 240 416.7C237.53 415.49 233.25 412.25 230.5 409.5C227.75 406.75 224.51 402.48 223.29 400C222.08 397.52 220.58 391.9 219.97 387.5C219.35 383.1 218.32 378.19 217.67 376.6C217.03 375 214.81 372.19 212.75 370.35C210.56 368.4 207.44 366.74 205.25 366.37C203.19 366.03 199.7 366.01 197.5 366.34C195.3 366.67 191.98 368.19 190.12 369.72C188.27 371.25 185.9 374.07 184.87 376C183.65 378.27 182.99 381.53 183 385.25C183 388.41 183.72 394.49 184.59 398.75C185.46 403.01 187.74 409.88 189.66 414C191.57 418.13 195.24 424.41 197.82 427.97C200.39 431.53 205.43 436.85 209 439.8C212.57 442.74 219.55 447.12 224.5 449.52C229.56 451.97 237 454.61 241.5 455.54C245.9 456.46 252.43 457.21 256 457.21C259.57 457.21 266.1 456.46 270.5 455.54C275 454.61 282.44 451.97 287.5 449.52C292.45 447.12 299.43 442.74 303 439.8C306.57 436.85 311.61 431.53 314.18 427.97C316.76 424.41 320.43 418.13 322.34 414C324.26 409.88 326.54 403.01 327.41 398.75C328.28 394.49 329 387.85 329 384C329 380.15 328.28 373.51 327.41 369.25C326.54 364.99 324.26 358.13 322.34 354C320.43 349.88 316.76 343.59 314.18 340.03C311.61 336.47 306.57 331.15 303 328.2C299.43 325.26 292.45 320.88 287.5 318.48C282.38 316 275.16 313.45 270.75 312.56C263.98 311.2 247.33 311 138.75 310.99L14.5 310.98L10.01 313.24Z" />
</svg>